<svg width="360" height="360" viewBox="0 0 360 360" fill="none" xmlns="http://www.w3.org/2000/svg">
<path d="M180 120.007L180 315.007M180 120.007C174.574 97.6476 165.232 78.5325 153.191 65.154C141.15 51.7755 126.97 44.7544 112.5 45.0066C102.554 45.0066 93.0161 48.9574 85.9835 55.9901C78.9509 63.0227 75 72.5609 75 82.5066C75 92.4522 78.9509 101.99 85.9835 109.023C93.0161 116.056 102.554 120.007 112.5 120.007M180 120.007C185.426 97.6476 194.768 78.5325 206.809 65.154C218.85 51.7755 233.03 44.7544 247.5 45.0066C257.446 45.0066 266.984 48.9574 274.017 55.9901C281.049 63.0227 285 72.5609 285 82.5066C285 92.4522 281.049 101.99 274.017 109.023C266.984 116.056 257.446 120.007 247.5 120.007M285 180.007V285.007C285 292.963 281.839 300.594 276.213 306.22C270.587 311.846 262.956 315.007 255 315.007H105C97.0435 315.007 89.4129 311.846 83.7868 306.22C78.1607 300.594 75 292.963 75 285.007L75 180.007M60 120.007L300 120.007C308.284 120.007 315 126.722 315 135.007V165.007C315 173.291 308.284 180.007 300 180.007L60 180.007C51.7157 180.007 45 173.291 45 165.007L45 135.007C45 126.722 51.7157 120.007 60 120.007Z" stroke="#A2D5F2" stroke-width="7" stroke-linecap="round" stroke-linejoin="round"/>
</svg>
