<svg width="19" height="18" viewBox="0 0 19 18" fill="none" xmlns="http://www.w3.org/2000/svg">
<path d="M7.9527 11.625C7.88575 11.3654 7.75046 11.1286 7.56092 10.939C7.37138 10.7495 7.13451 10.6142 6.87495 10.5473L2.27371 9.36075C2.1952 9.33847 2.12611 9.29119 2.07691 9.22609C2.02772 9.16098 2.0011 9.08161 2.0011 9C2.0011 8.9184 2.02772 8.83902 2.07691 8.77392C2.12611 8.70882 2.1952 8.66154 2.27371 8.63925L6.87495 7.452C7.13442 7.38511 7.37122 7.24993 7.56076 7.06053C7.75029 6.87113 7.88563 6.63442 7.9527 6.375L9.1392 1.77375C9.16126 1.69494 9.20849 1.62551 9.27369 1.57605C9.3389 1.52659 9.41849 1.49982 9.50033 1.49982C9.58217 1.49982 9.66176 1.52659 9.72696 1.57605C9.79217 1.62551 9.8394 1.69494 9.86145 1.77375L11.0472 6.375C11.1142 6.63456 11.2495 6.87143 11.439 7.06097C11.6285 7.25051 11.8654 7.3858 12.125 7.45275L16.7262 8.6385C16.8053 8.66033 16.8751 8.70751 16.9248 8.77281C16.9746 8.83811 17.0015 8.91792 17.0015 9C17.0015 9.08208 16.9746 9.1619 16.9248 9.2272C16.8751 9.2925 16.8053 9.33968 16.7262 9.3615L12.125 10.5473C11.8654 10.6142 11.6285 10.7495 11.439 10.939C11.2495 11.1286 11.1142 11.3654 11.0472 11.625L9.8607 16.2263C9.83865 16.3051 9.79142 16.3745 9.72621 16.424C9.66101 16.4734 9.58142 16.5002 9.49958 16.5002C9.41774 16.5002 9.33815 16.4734 9.27294 16.424C9.20774 16.3745 9.16051 16.3051 9.13845 16.2263L7.9527 11.625Z" fill="#07689F"/>
<path d="M15.5 2.25V5.25V2.25Z" fill="#07689F"/>
<path d="M17 3.75H14H17Z" fill="#07689F"/>
<path d="M3.49996 12.75V14.25V12.75Z" fill="#07689F"/>
<path d="M4.24995 13.5H2.74996H4.24995Z" fill="#07689F"/>
<path d="M15.5 2.25V5.25M17 3.75H14M3.49995 12.75V14.25M4.24995 13.5H2.74996M7.9527 11.625C7.88575 11.3655 7.75046 11.1286 7.56092 10.939C7.37138 10.7495 7.13451 10.6142 6.87495 10.5473L2.27371 9.36075C2.1952 9.33847 2.12611 9.29119 2.07691 9.22609C2.02772 9.16098 2.0011 9.08161 2.0011 9C2.0011 8.9184 2.02772 8.83902 2.07691 8.77392C2.12611 8.70882 2.1952 8.66154 2.27371 8.63925L6.87495 7.452C7.13442 7.38511 7.37122 7.24993 7.56076 7.06053C7.75029 6.87113 7.88563 6.63442 7.9527 6.375L9.1392 1.77375C9.16126 1.69494 9.20849 1.62551 9.27369 1.57605C9.3389 1.52659 9.41849 1.49982 9.50033 1.49982C9.58217 1.49982 9.66176 1.52659 9.72696 1.57605C9.79217 1.62551 9.8394 1.69494 9.86145 1.77375L11.0472 6.375C11.1142 6.63456 11.2495 6.87143 11.439 7.06097C11.6285 7.25051 11.8654 7.3858 12.125 7.45275L16.7262 8.6385C16.8053 8.66033 16.8751 8.70751 16.9248 8.77281C16.9746 8.83811 17.0015 8.91792 17.0015 9C17.0015 9.08208 16.9746 9.1619 16.9248 9.2272C16.8751 9.2925 16.8053 9.33968 16.7262 9.3615L12.125 10.5473C11.8654 10.6142 11.6285 10.7495 11.439 10.939C11.2495 11.1286 11.1142 11.3655 11.0472 11.625L9.8607 16.2263C9.83865 16.3051 9.79142 16.3745 9.72621 16.424C9.66101 16.4734 9.58142 16.5002 9.49958 16.5002C9.41774 16.5002 9.33815 16.4734 9.27295 16.424C9.20774 16.3745 9.16051 16.3051 9.13845 16.2263L7.9527 11.625Z" stroke="#07689F" stroke-width="1.5" stroke-linecap="round" stroke-linejoin="round"/>
</svg>
