<svg width="20" height="20" viewBox="0 0 20 20" fill="none" xmlns="http://www.w3.org/2000/svg">
<g clip-path="url(#clip0_155_277)">
<path d="M10 19C14.9706 19 19 14.9706 19 10C19 5.02944 14.9706 1 10 1C5.02944 1 1 5.02944 1 10C1 14.9706 5.02944 19 10 19Z" stroke="#A2D5F2" stroke-width="1.5" stroke-linecap="round" stroke-linejoin="round"/>
<path d="M9.17 4.5H10.865L10.58 11.685H9.44L9.17 4.5ZM10.025 15.09C9.745 15.09 9.51 15 9.32 14.82C9.13 14.63 9.035 14.4 9.035 14.13C9.035 13.86 9.13 13.635 9.32 13.455C9.51 13.265 9.745 13.17 10.025 13.17C10.305 13.17 10.535 13.265 10.715 13.455C10.895 13.635 10.985 13.86 10.985 14.13C10.985 14.4 10.89 14.63 10.7 14.82C10.52 15 10.295 15.09 10.025 15.09Z" fill="#A2D5F2"/>
</g>
<defs>
<clipPath id="clip0_155_277">
<rect width="20" height="20" fill="white"/>
</clipPath>
</defs>
</svg>
