<svg width="29" height="29" viewBox="0 0 29 29" fill="none" xmlns="http://www.w3.org/2000/svg">
<path d="M24.1666 12.0263C24.1666 17.742 17.4737 23.6946 15.2262 25.5331C15.0168 25.6822 14.7619 25.7629 14.5 25.7629C14.238 25.7629 13.9831 25.6822 13.7738 25.5331C11.5263 23.6946 4.83331 17.742 4.83331 12.0263C4.83331 9.59748 5.85176 7.26813 7.66461 5.55069C9.47747 3.83326 11.9362 2.86841 14.5 2.86841C17.0637 2.86841 19.5225 3.83326 21.3353 5.55069C23.1482 7.26813 24.1666 9.59748 24.1666 12.0263Z" stroke="#07689F" stroke-width="1.5" stroke-linecap="round" stroke-linejoin="round"/>
<path d="M14.5 15.4605C16.502 15.4605 18.125 13.923 18.125 12.0263C18.125 10.1296 16.502 8.59209 14.5 8.59209C12.4979 8.59209 10.875 10.1296 10.875 12.0263C10.875 13.923 12.4979 15.4605 14.5 15.4605Z" stroke="#07689F" stroke-width="1.5" stroke-linecap="round" stroke-linejoin="round"/>
</svg>
