<svg width="40" height="40" viewBox="0 0 40 40" fill="none" xmlns="http://www.w3.org/2000/svg">
<path d="M35 16.6666V13.3333C34.9994 12.7488 34.8451 12.1747 34.5526 11.6686C34.26 11.1625 33.8396 10.7423 33.3333 10.45L21.6667 3.78331C21.1599 3.49075 20.5851 3.33673 20 3.33673C19.4149 3.33673 18.8401 3.49075 18.3333 3.78331L6.66667 10.45C6.16044 10.7423 5.73997 11.1625 5.44744 11.6686C5.1549 12.1747 5.0006 12.7488 5 13.3333V26.6666C5.0006 27.2512 5.1549 27.8253 5.44744 28.3314C5.73997 28.8375 6.16044 29.2577 6.66667 29.55L18.3333 36.2166C18.8401 36.5092 19.4149 36.6632 20 36.6632C20.5851 36.6632 21.1599 36.5092 21.6667 36.2166L25 34.3166M12.5 7.11665L27.5 15.7M5.48333 11.6666L20 20M20 20L34.5167 11.6666M20 20V36.6666M33.7833 28.7833L36.6667 31.6666M35 25.8333C35 28.1345 33.1345 30 30.8333 30C28.5321 30 26.6667 28.1345 26.6667 25.8333C26.6667 23.5321 28.5321 21.6666 30.8333 21.6666C33.1345 21.6666 35 23.5321 35 25.8333Z" stroke="#A2D5F2" stroke-width="2" stroke-linecap="round" stroke-linejoin="round"/>
</svg>
